<svg xmlns="http://www.w3.org/2000/svg" xmlns:xlink="http://www.w3.org/1999/xlink" width="64" zoomAndPan="magnify" viewBox="0 0 48 48" height="64" preserveAspectRatio="xMidYMid meet" version="1.0"><defs><clipPath id="31b3e182ce"><path d="M 0.757812 5.441406 L 47.042969 5.441406 L 47.042969 41.441406 L 0.757812 41.441406 Z M 0.757812 5.441406 " clip-rule="nonzero"/></clipPath></defs><path fill="#10a983" d="M 35.441406 26.640625 L 32.488281 25.320312 L 35.042969 23.335938 L 41.410156 18.394531 L 35.628906 18.523438 L 32.410156 18.59375 L 33.601562 16.210938 L 32.128906 17.605469 L 29.90625 19.707031 L 28.953125 16.796875 L 27.960938 13.773438 L 26.835938 16.027344 L 24.929688 19.832031 L 23.304688 15.898438 L 21.015625 10.355469 L 18.972656 14.914062 L 17.992188 17.105469 L 16.054688 15.6875 L 10.007812 11.257812 L 12.683594 18.78125 L 13.535156 21.167969 L 11.007812 21.367188 L 9.53125 21.480469 L 10.078125 21.894531 L 11.605469 23.039062 L 10.488281 24.582031 L 5.199219 31.886719 L 11.917969 30.601562 L 14.40625 30.125 L 14.214844 32.652344 L 14.089844 34.351562 L 16.953125 32.859375 L 18.515625 32.042969 L 19.476562 33.523438 L 22.117188 37.601562 L 24.382812 32.839844 L 25.5625 30.355469 L 28.597656 33.394531 L 28.367188 30.320312 L 31.261719 31.484375 L 35.492188 33.1875 L 33.25 30.167969 L 31.40625 27.683594 L 34.449219 27.105469 L 35.878906 26.835938 L 35.441406 26.640625 " fill-opacity="1" fill-rule="nonzero"/><g clip-path="url(#31b3e182ce)"><path fill="#163851" d="M 36.234375 24.871094 L 47.238281 16.324219 L 35.585938 16.582031 L 40.246094 7.261719 L 30.796875 16.195312 L 28.335938 8.683594 L 25.097656 15.160156 L 21.085938 5.449219 L 17.203125 14.121094 L 6.066406 5.964844 L 10.855469 19.429688 L 4.253906 19.949219 L 8.914062 23.445312 L 0.757812 34.710938 L 12.28125 32.507812 L 11.894531 37.6875 L 17.847656 34.578125 L 22.378906 41.570312 L 26.136719 33.671875 L 30.925781 38.464844 L 30.535156 33.285156 L 41.152344 37.558594 L 34.808594 29.011719 L 42.320312 27.589844 Z M 31.261719 31.484375 L 28.367188 30.320312 L 28.597656 33.394531 L 25.5625 30.355469 L 24.382812 32.839844 L 22.117188 37.601562 L 19.476562 33.523438 L 18.515625 32.042969 L 16.953125 32.859375 L 14.089844 34.351562 L 14.214844 32.652344 L 14.40625 30.125 L 11.917969 30.601562 L 5.199219 31.886719 L 10.488281 24.582031 L 11.605469 23.039062 L 10.078125 21.894531 L 9.53125 21.480469 L 11.007812 21.367188 L 13.535156 21.167969 L 12.683594 18.78125 L 10.007812 11.257812 L 16.054688 15.6875 L 17.992188 17.105469 L 18.972656 14.914062 L 21.015625 10.355469 L 23.304688 15.898438 L 24.929688 19.832031 L 26.835938 16.027344 L 27.960938 13.773438 L 28.953125 16.796875 L 29.90625 19.707031 L 32.128906 17.605469 L 33.601562 16.210938 L 32.410156 18.59375 L 35.628906 18.523438 L 41.410156 18.394531 L 35.042969 23.335938 L 32.488281 25.320312 L 35.441406 26.640625 L 35.878906 26.835938 L 34.449219 27.105469 L 31.40625 27.683594 L 33.25 30.167969 L 35.492188 33.1875 L 31.261719 31.484375 " fill-opacity="1" fill-rule="nonzero"/></g></svg>