<svg xmlns="http://www.w3.org/2000/svg" xmlns:xlink="http://www.w3.org/1999/xlink" width="64" zoomAndPan="magnify" viewBox="0 0 48 48" height="64" preserveAspectRatio="xMidYMid meet" version="1.0"><defs><clipPath id="68d4db4448"><path d="M 0.488281 0 L 47.507812 0 L 47.507812 47.019531 L 0.488281 47.019531 Z M 0.488281 0 " clip-rule="nonzero"/></clipPath></defs><path fill="#0ea881" d="M 35.753906 23.511719 L 43.59375 23.511719 C 43.59375 34.332031 34.820312 43.101562 24 43.101562 L 24 35.265625 C 30.492188 35.265625 35.753906 30.003906 35.753906 23.511719 Z M 35.753906 23.511719 " fill-opacity="1" fill-rule="nonzero"/><path fill="#0ea881" d="M 43.59375 23.511719 L 35.753906 23.511719 C 35.753906 17.019531 30.492188 11.753906 24 11.753906 L 24 3.917969 C 34.820312 3.917969 43.59375 12.691406 43.59375 23.511719 Z M 43.59375 23.511719 " fill-opacity="1" fill-rule="nonzero"/><path fill="#0ea881" d="M 27.917969 23.511719 C 27.917969 23.765625 27.894531 24.023438 27.84375 24.273438 C 27.792969 24.527344 27.71875 24.773438 27.621094 25.007812 C 27.523438 25.246094 27.402344 25.472656 27.257812 25.6875 C 27.113281 25.902344 26.953125 26.097656 26.769531 26.28125 C 26.589844 26.460938 26.390625 26.625 26.175781 26.769531 C 25.964844 26.910156 25.738281 27.03125 25.5 27.128906 C 25.261719 27.230469 25.015625 27.304688 24.765625 27.351562 C 24.511719 27.402344 24.257812 27.429688 24 27.429688 C 23.742188 27.429688 23.488281 27.402344 23.234375 27.351562 C 22.984375 27.304688 22.738281 27.230469 22.5 27.128906 C 22.261719 27.03125 22.035156 26.910156 21.824219 26.769531 C 21.609375 26.625 21.410156 26.460938 21.230469 26.28125 C 21.046875 26.097656 20.886719 25.902344 20.742188 25.6875 C 20.597656 25.472656 20.476562 25.246094 20.378906 25.007812 C 20.28125 24.773438 20.207031 24.527344 20.15625 24.273438 C 20.105469 24.023438 20.082031 23.765625 20.082031 23.511719 C 20.082031 23.253906 20.105469 23 20.15625 22.746094 C 20.207031 22.492188 20.28125 22.25 20.378906 22.011719 C 20.476562 21.773438 20.597656 21.546875 20.742188 21.332031 C 20.886719 21.121094 21.046875 20.921875 21.230469 20.738281 C 21.410156 20.558594 21.609375 20.394531 21.824219 20.253906 C 22.035156 20.109375 22.261719 19.988281 22.5 19.890625 C 22.738281 19.792969 22.984375 19.71875 23.234375 19.667969 C 23.488281 19.617188 23.742188 19.59375 24 19.59375 C 24.257812 19.59375 24.511719 19.617188 24.765625 19.667969 C 25.015625 19.71875 25.261719 19.792969 25.5 19.890625 C 25.738281 19.988281 25.964844 20.109375 26.175781 20.253906 C 26.390625 20.394531 26.589844 20.558594 26.769531 20.738281 C 26.953125 20.921875 27.113281 21.121094 27.257812 21.332031 C 27.402344 21.546875 27.523438 21.773438 27.621094 22.011719 C 27.71875 22.25 27.792969 22.492188 27.84375 22.746094 C 27.894531 23 27.917969 23.253906 27.917969 23.511719 Z M 27.917969 23.511719 " fill-opacity="1" fill-rule="nonzero"/><path fill="#0ea881" d="M 24 35.265625 L 24 43.101562 C 13.179688 43.101562 4.40625 34.332031 4.40625 23.511719 L 12.246094 23.511719 C 12.246094 30.003906 17.507812 35.265625 24 35.265625 Z M 24 35.265625 " fill-opacity="1" fill-rule="nonzero"/><path fill="#0ea881" d="M 24 3.917969 L 24 11.753906 C 17.507812 11.753906 12.246094 17.019531 12.246094 23.511719 L 4.40625 23.511719 C 4.40625 12.691406 13.179688 3.917969 24 3.917969 Z M 24 3.917969 " fill-opacity="1" fill-rule="nonzero"/><g clip-path="url(#68d4db4448)"><path fill="#3a5774" d="M 45.550781 21.550781 L 45.460938 21.550781 C 44.539062 11.230469 36.320312 2.976562 25.960938 2.046875 L 25.960938 1.960938 C 25.960938 0.878906 25.082031 0 24 0 C 22.917969 0 22.039062 0.878906 22.039062 1.960938 L 22.039062 2.046875 C 11.71875 2.972656 3.464844 11.191406 2.539062 21.550781 L 2.449219 21.550781 C 1.367188 21.550781 0.488281 22.429688 0.488281 23.511719 C 0.488281 24.59375 1.367188 25.46875 2.449219 25.46875 L 2.539062 25.46875 C 3.460938 35.789062 11.679688 44.042969 22.039062 44.972656 L 22.039062 45.0625 C 22.039062 46.144531 22.917969 47.019531 24 47.019531 C 25.082031 47.019531 25.960938 46.144531 25.960938 45.0625 L 25.960938 44.972656 C 36.28125 44.046875 44.535156 35.828125 45.460938 25.46875 L 45.550781 25.46875 C 46.632812 25.46875 47.511719 24.59375 47.511719 23.511719 C 47.511719 22.429688 46.632812 21.550781 45.550781 21.550781 Z M 41.523438 21.550781 L 37.574219 21.550781 C 36.710938 15.554688 31.957031 10.796875 25.960938 9.9375 L 25.960938 5.988281 C 34.121094 6.894531 40.617188 13.390625 41.523438 21.550781 Z M 24 33.304688 C 18.597656 33.304688 14.203125 28.910156 14.203125 23.511719 C 14.203125 18.109375 18.597656 13.714844 24 13.714844 C 29.402344 13.714844 33.796875 18.109375 33.796875 23.511719 C 33.796875 28.910156 29.402344 33.304688 24 33.304688 Z M 22.039062 5.988281 L 22.039062 9.9375 C 16.042969 10.796875 11.289062 15.554688 10.425781 21.550781 L 6.476562 21.550781 C 7.382812 13.390625 13.878906 6.894531 22.039062 5.988281 Z M 6.476562 25.46875 L 10.425781 25.46875 C 11.289062 31.464844 16.042969 36.222656 22.039062 37.082031 L 22.039062 41.035156 C 13.878906 40.128906 7.382812 33.628906 6.476562 25.46875 Z M 25.960938 41.035156 L 25.960938 37.082031 C 31.957031 36.222656 36.710938 31.464844 37.574219 25.46875 L 41.523438 25.46875 C 40.617188 33.628906 34.121094 40.128906 25.960938 41.035156 Z M 25.960938 41.035156 " fill-opacity="1" fill-rule="nonzero"/></g><path fill="#3a5774" d="M 24 17.632812 C 20.757812 17.632812 18.121094 20.269531 18.121094 23.511719 C 18.121094 26.75 20.757812 29.386719 24 29.386719 C 27.242188 29.386719 29.878906 26.75 29.878906 23.511719 C 29.878906 20.269531 27.242188 17.632812 24 17.632812 Z M 24 25.46875 C 22.917969 25.46875 22.039062 24.589844 22.039062 23.511719 C 22.039062 22.429688 22.917969 21.550781 24 21.550781 C 25.082031 21.550781 25.960938 22.429688 25.960938 23.511719 C 25.960938 24.589844 25.082031 25.46875 24 25.46875 Z M 24 25.46875 " fill-opacity="1" fill-rule="nonzero"/></svg>